<mxfile host="app.diagrams.net" modified="2022-12-07T11:37:24.391Z" agent="5.0 (Windows NT 10.0; Win64; x64) AppleWebKit/537.36 (KHTML, like Gecko) Chrome/108.0.0.0 Safari/537.36" etag="pHNjch5b_i7I7PSgKy4-" version="20.6.0" type="github">
  <diagram name="Page-1" id="e7e014a7-5840-1c2e-5031-d8a46d1fe8dd">
    <mxGraphModel dx="1635" dy="902" grid="1" gridSize="10" guides="1" tooltips="1" connect="1" arrows="1" fold="1" page="1" pageScale="1" pageWidth="1169" pageHeight="826" background="none" math="0" shadow="0">
      <root>
        <mxCell id="0" />
        <mxCell id="1" parent="0" />
        <mxCell id="v5PDgs_hm84nTmkI74xi-41" value="&lt;b&gt;&lt;font style=&quot;font-size: 18px;&quot;&gt;Подготовиться к экзаменам&lt;/font&gt;&lt;/b&gt;" style="rounded=0;whiteSpace=wrap;html=1;fillColor=#d5e8d4;strokeColor=#82b366;fontFamily=Tahoma;horizontal=1;shadow=1;" vertex="1" parent="1">
          <mxGeometry x="240" y="320" width="320" height="190" as="geometry" />
        </mxCell>
        <mxCell id="v5PDgs_hm84nTmkI74xi-42" value="" style="endArrow=classic;html=1;rounded=0;fontSize=18;entryX=0.25;entryY=1;entryDx=0;entryDy=0;strokeColor=#d79b00;fontColor=#143642;labelBackgroundColor=#DAD2D8;fillColor=#ffe6cc;" edge="1" parent="1" target="v5PDgs_hm84nTmkI74xi-41">
          <mxGeometry width="50" height="50" relative="1" as="geometry">
            <mxPoint x="320" y="680" as="sourcePoint" />
            <mxPoint x="140" y="100" as="targetPoint" />
          </mxGeometry>
        </mxCell>
        <mxCell id="v5PDgs_hm84nTmkI74xi-43" value="&lt;font style=&quot;font-size: 14px;&quot;&gt;Репетиторы&lt;/font&gt;" style="edgeLabel;html=1;align=center;verticalAlign=middle;resizable=0;points=[];fontSize=18;labelBackgroundColor=none;fontFamily=Tahoma;horizontal=1;fontColor=#143642;" vertex="1" connectable="0" parent="v5PDgs_hm84nTmkI74xi-42">
          <mxGeometry x="-0.296" y="-1" relative="1" as="geometry">
            <mxPoint x="-11" y="-25" as="offset" />
          </mxGeometry>
        </mxCell>
        <mxCell id="v5PDgs_hm84nTmkI74xi-44" value="" style="endArrow=classic;html=1;rounded=0;fontSize=18;strokeColor=#d79b00;fontColor=#143642;labelBackgroundColor=#DAD2D8;fillColor=#ffe6cc;" edge="1" parent="1">
          <mxGeometry width="50" height="50" relative="1" as="geometry">
            <mxPoint x="400" y="120" as="sourcePoint" />
            <mxPoint x="400" y="320" as="targetPoint" />
          </mxGeometry>
        </mxCell>
        <mxCell id="v5PDgs_hm84nTmkI74xi-45" value="&lt;font style=&quot;font-size: 14px;&quot;&gt;Дополнительные&lt;br&gt;&amp;nbsp;занятия&lt;/font&gt;" style="edgeLabel;html=1;align=center;verticalAlign=middle;resizable=0;points=[];fontSize=18;labelBackgroundColor=none;fontFamily=Tahoma;horizontal=1;fontColor=#143642;" vertex="1" connectable="0" parent="v5PDgs_hm84nTmkI74xi-44">
          <mxGeometry x="-0.296" y="-1" relative="1" as="geometry">
            <mxPoint x="-29" y="-30" as="offset" />
          </mxGeometry>
        </mxCell>
        <mxCell id="v5PDgs_hm84nTmkI74xi-46" value="" style="endArrow=classic;html=1;rounded=0;fontSize=18;entryX=0.75;entryY=1;entryDx=0;entryDy=0;strokeColor=#d79b00;fontColor=#143642;labelBackgroundColor=#DAD2D8;fillColor=#ffe6cc;" edge="1" parent="1" target="v5PDgs_hm84nTmkI74xi-41">
          <mxGeometry width="50" height="50" relative="1" as="geometry">
            <mxPoint x="480" y="680" as="sourcePoint" />
            <mxPoint x="720" y="770" as="targetPoint" />
          </mxGeometry>
        </mxCell>
        <mxCell id="v5PDgs_hm84nTmkI74xi-47" value="&lt;span style=&quot;font-size: 14px;&quot;&gt;Пробные варианты&lt;/span&gt;" style="edgeLabel;html=1;align=center;verticalAlign=middle;resizable=0;points=[];fontSize=18;labelBackgroundColor=none;fontFamily=Tahoma;horizontal=1;fontColor=#143642;" vertex="1" connectable="0" parent="v5PDgs_hm84nTmkI74xi-46">
          <mxGeometry x="-0.296" y="-1" relative="1" as="geometry">
            <mxPoint x="29" y="-20" as="offset" />
          </mxGeometry>
        </mxCell>
        <mxCell id="v5PDgs_hm84nTmkI74xi-48" value="" style="endArrow=classic;html=1;rounded=0;fontSize=18;entryX=0.25;entryY=0;entryDx=0;entryDy=0;strokeColor=#d79b00;fontColor=#143642;labelBackgroundColor=#DAD2D8;fillColor=#ffe6cc;" edge="1" parent="1" target="v5PDgs_hm84nTmkI74xi-41">
          <mxGeometry width="50" height="50" relative="1" as="geometry">
            <mxPoint x="320" y="120" as="sourcePoint" />
            <mxPoint x="394.01700000000005" y="509.04999999999995" as="targetPoint" />
          </mxGeometry>
        </mxCell>
        <mxCell id="v5PDgs_hm84nTmkI74xi-49" value="" style="endArrow=classic;html=1;rounded=0;fontSize=18;fontFamily=Tahoma;horizontal=1;strokeColor=#d79b00;fontColor=#143642;labelBackgroundColor=#DAD2D8;fillColor=#ffe6cc;" edge="1" parent="1" source="v5PDgs_hm84nTmkI74xi-41">
          <mxGeometry width="50" height="50" relative="1" as="geometry">
            <mxPoint x="600" y="410" as="sourcePoint" />
            <mxPoint x="760" y="415" as="targetPoint" />
          </mxGeometry>
        </mxCell>
        <mxCell id="v5PDgs_hm84nTmkI74xi-50" value="&lt;span style=&quot;font-size: 14px;&quot;&gt;Сдача экзамена&lt;br&gt;&lt;/span&gt;" style="edgeLabel;html=1;align=center;verticalAlign=middle;resizable=0;points=[];fontSize=18;labelBackgroundColor=none;fontFamily=Tahoma;horizontal=1;fontColor=#143642;" vertex="1" connectable="0" parent="v5PDgs_hm84nTmkI74xi-49">
          <mxGeometry x="-0.296" y="-1" relative="1" as="geometry">
            <mxPoint x="33" y="-28" as="offset" />
          </mxGeometry>
        </mxCell>
        <mxCell id="v5PDgs_hm84nTmkI74xi-51" value="" style="endArrow=classic;html=1;rounded=0;fontSize=18;fontFamily=Tahoma;horizontal=1;strokeColor=#d79b00;fontColor=#143642;labelBackgroundColor=#DAD2D8;fillColor=#ffe6cc;" edge="1" parent="1" target="v5PDgs_hm84nTmkI74xi-41">
          <mxGeometry width="50" height="50" relative="1" as="geometry">
            <mxPoint x="40" y="415" as="sourcePoint" />
            <mxPoint x="434.01700000000005" y="549.05" as="targetPoint" />
          </mxGeometry>
        </mxCell>
        <mxCell id="v5PDgs_hm84nTmkI74xi-52" value="&lt;span style=&quot;font-size: 14px;&quot;&gt;Информация про экзамен&lt;/span&gt;" style="edgeLabel;html=1;align=center;verticalAlign=middle;resizable=0;points=[];fontSize=18;labelBackgroundColor=none;fontFamily=Tahoma;horizontal=1;fontColor=#143642;" vertex="1" connectable="0" parent="v5PDgs_hm84nTmkI74xi-51">
          <mxGeometry x="-0.296" y="-1" relative="1" as="geometry">
            <mxPoint x="28" y="-16" as="offset" />
          </mxGeometry>
        </mxCell>
        <mxCell id="v5PDgs_hm84nTmkI74xi-53" value="" style="endArrow=classic;html=1;rounded=0;fontSize=18;entryX=0.642;entryY=-0.008;entryDx=0;entryDy=0;strokeColor=#d79b00;fontColor=#143642;labelBackgroundColor=#DAD2D8;entryPerimeter=0;fillColor=#ffe6cc;" edge="1" parent="1" target="v5PDgs_hm84nTmkI74xi-41">
          <mxGeometry width="50" height="50" relative="1" as="geometry">
            <mxPoint x="445" y="120" as="sourcePoint" />
            <mxPoint x="444.01700000000005" y="559.05" as="targetPoint" />
          </mxGeometry>
        </mxCell>
        <mxCell id="v5PDgs_hm84nTmkI74xi-54" value="А0" style="text;html=1;strokeColor=none;fillColor=none;align=center;verticalAlign=middle;whiteSpace=wrap;rounded=0;labelBackgroundColor=none;fontSize=14;fontFamily=Tahoma;horizontal=1;fontColor=#143642;" vertex="1" parent="1">
          <mxGeometry x="530" y="480" width="30" height="30" as="geometry" />
        </mxCell>
        <mxCell id="v5PDgs_hm84nTmkI74xi-55" value="Книги" style="text;html=1;strokeColor=none;fillColor=none;align=center;verticalAlign=middle;whiteSpace=wrap;rounded=0;" vertex="1" parent="1">
          <mxGeometry x="250" y="180" width="60" height="30" as="geometry" />
        </mxCell>
        <mxCell id="v5PDgs_hm84nTmkI74xi-56" value="Интернет-уроки" style="text;html=1;strokeColor=none;fillColor=none;align=center;verticalAlign=middle;whiteSpace=wrap;rounded=0;" vertex="1" parent="1">
          <mxGeometry x="450" y="190" width="60" height="30" as="geometry" />
        </mxCell>
      </root>
    </mxGraphModel>
  </diagram>
</mxfile>
